# xmcd
#
# Track frame offsets:
#	150
#	19460
#	37670
#	53670
#	77920
#	100405
#	114027
#	143335
#
# Disc length: 2165 seconds
# Revision: 7
# Processed by: cddbd v1.5.2PL0 Copyright (c) Steve Scherf et al.
# Submitted via: dBpowerAMP V12.0
#
DISCID=55087308
DTITLE=Little Milton - Blues 'N Soul
DYEAR=1974
DGENRE=Blues
TTITLE0=Woman Across the River
TTITLE1=Behind Closed Doors
TTITLE2=Sweet Woman of Mine
TTITLE3=Worried Dreamer
TTITLE4=How Could You Do It to Me
TTITLE5=You're No Good
TTITLE6='Tain't Nobody's Bizness If I Do
TTITLE7=Hard Luck Blues
EXTD=
EXTT0=
EXTT1=
EXTT2=
EXTT3=
EXTT4=
EXTT5=
EXTT6=
EXTT7=
PLAYORDER=
